<mxfile host="app.diagrams.net" modified="2020-10-02T01:06:04.498Z" agent="5.0 (Linux; Android 10; SM-T830) AppleWebKit/537.36 (KHTML, like Gecko) Chrome/85.0.4183.127 Safari/537.36 OPR/60.1.3004.55238" etag="riyf2fuuFyrPQS676JC9" version="13.7.7" type="github">
  <diagram id="8QT5qo1R65SEVay4G9qd" name="Page-1">
    <mxGraphModel dx="965" dy="537" grid="1" gridSize="10" guides="1" tooltips="1" connect="1" arrows="1" fold="1" page="1" pageScale="1" pageWidth="850" pageHeight="1100" math="0" shadow="1">
      <root>
        <mxCell id="0" />
        <mxCell id="1" parent="0" visible="0" />
        <mxCell id="RsXlqeb4Z1pX-YmVXjKN-4" value="" style="edgeStyle=orthogonalEdgeStyle;rounded=0;orthogonalLoop=1;jettySize=auto;html=1;strokeColor=#FF6392;fontColor=#5AA9E6;sketch=1;curved=1;" parent="1" source="RsXlqeb4Z1pX-YmVXjKN-1" target="RsXlqeb4Z1pX-YmVXjKN-2" edge="1">
          <mxGeometry relative="1" as="geometry" />
        </mxCell>
        <mxCell id="RsXlqeb4Z1pX-YmVXjKN-1" value="" style="ellipse;whiteSpace=wrap;html=1;fillColor=#FFE45E;strokeColor=#FF6392;fontColor=#5AA9E6;sketch=1;" parent="1" vertex="1">
          <mxGeometry x="80" y="280" width="120" height="80" as="geometry" />
        </mxCell>
        <mxCell id="RsXlqeb4Z1pX-YmVXjKN-6" value="" style="edgeStyle=orthogonalEdgeStyle;rounded=0;orthogonalLoop=1;jettySize=auto;html=1;strokeColor=#FF6392;fontColor=#5AA9E6;sketch=1;curved=1;" parent="1" source="RsXlqeb4Z1pX-YmVXjKN-2" target="RsXlqeb4Z1pX-YmVXjKN-5" edge="1">
          <mxGeometry relative="1" as="geometry" />
        </mxCell>
        <mxCell id="RsXlqeb4Z1pX-YmVXjKN-10" value="" style="edgeStyle=orthogonalEdgeStyle;rounded=0;orthogonalLoop=1;jettySize=auto;html=1;strokeColor=#FF6392;fontColor=#5AA9E6;sketch=1;curved=1;" parent="1" source="RsXlqeb4Z1pX-YmVXjKN-2" target="RsXlqeb4Z1pX-YmVXjKN-9" edge="1">
          <mxGeometry relative="1" as="geometry" />
        </mxCell>
        <mxCell id="RsXlqeb4Z1pX-YmVXjKN-2" value="" style="ellipse;whiteSpace=wrap;html=1;direction=west;fillColor=#FFE45E;strokeColor=#FF6392;fontColor=#5AA9E6;sketch=1;" parent="1" vertex="1">
          <mxGeometry x="280" y="280" width="120" height="80" as="geometry" />
        </mxCell>
        <mxCell id="RsXlqeb4Z1pX-YmVXjKN-8" value="" style="edgeStyle=orthogonalEdgeStyle;rounded=0;orthogonalLoop=1;jettySize=auto;html=1;strokeColor=#FF6392;fontColor=#5AA9E6;sketch=1;curved=1;" parent="1" source="RsXlqeb4Z1pX-YmVXjKN-5" target="RsXlqeb4Z1pX-YmVXjKN-7" edge="1">
          <mxGeometry relative="1" as="geometry" />
        </mxCell>
        <mxCell id="RsXlqeb4Z1pX-YmVXjKN-5" value="" style="ellipse;whiteSpace=wrap;html=1;direction=west;fillColor=#FFE45E;strokeColor=#FF6392;fontColor=#5AA9E6;sketch=1;" parent="1" vertex="1">
          <mxGeometry x="280" y="120" width="120" height="80" as="geometry" />
        </mxCell>
        <mxCell id="Ammq4lgvdtWHiRioid3K-2" style="edgeStyle=orthogonalEdgeStyle;rounded=0;orthogonalLoop=1;jettySize=auto;html=1;exitX=0;exitY=1;exitDx=0;exitDy=0;entryX=0;entryY=1;entryDx=0;entryDy=0;strokeColor=#FF6392;fontColor=#5AA9E6;sketch=1;curved=1;" parent="1" source="RsXlqeb4Z1pX-YmVXjKN-7" target="RsXlqeb4Z1pX-YmVXjKN-2" edge="1">
          <mxGeometry relative="1" as="geometry" />
        </mxCell>
        <mxCell id="RsXlqeb4Z1pX-YmVXjKN-7" value="" style="whiteSpace=wrap;html=1;fillColor=#FFE45E;strokeColor=#FF6392;fontColor=#5AA9E6;sketch=1;" parent="1" vertex="1">
          <mxGeometry x="480" y="130" width="120" height="60" as="geometry" />
        </mxCell>
        <mxCell id="Ammq4lgvdtWHiRioid3K-1" value="" style="edgeStyle=orthogonalEdgeStyle;rounded=0;orthogonalLoop=1;jettySize=auto;html=1;strokeColor=#FF6392;fontColor=#5AA9E6;sketch=1;curved=1;" parent="1" source="RsXlqeb4Z1pX-YmVXjKN-9" target="RsXlqeb4Z1pX-YmVXjKN-7" edge="1">
          <mxGeometry relative="1" as="geometry" />
        </mxCell>
        <mxCell id="RsXlqeb4Z1pX-YmVXjKN-9" value="" style="ellipse;whiteSpace=wrap;html=1;direction=west;fillColor=#FFE45E;strokeColor=#FF6392;fontColor=#5AA9E6;sketch=1;" parent="1" vertex="1">
          <mxGeometry x="480" y="280" width="120" height="80" as="geometry" />
        </mxCell>
        <mxCell id="Ammq4lgvdtWHiRioid3K-3" value="Untitled Layer" parent="0" />
        <mxCell id="Ammq4lgvdtWHiRioid3K-5" value="" style="rounded=1;whiteSpace=wrap;html=1;strokeWidth=2;fillWeight=4;hachureGap=8;hachureAngle=45;fillColor=#FFE45E;sketch=1;fontColor=#5AA9E6;strokeColor=#FF6392;" parent="Ammq4lgvdtWHiRioid3K-3" vertex="1">
          <mxGeometry x="180" y="270" width="230" height="100" as="geometry" />
        </mxCell>
        <mxCell id="Ammq4lgvdtWHiRioid3K-6" value="List" style="swimlane;fontStyle=0;childLayout=stackLayout;horizontal=1;startSize=26;fillColor=#FFE45E;horizontalStack=0;resizeParent=1;resizeParentMax=0;resizeLast=0;collapsible=1;marginBottom=0;rounded=0;sketch=1;strokeColor=#FF6392;swimlaneFillColor=none;fontColor=#5AA9E6;" parent="Ammq4lgvdtWHiRioid3K-3" vertex="1">
          <mxGeometry x="50" y="70" width="140" height="104" as="geometry">
            <mxRectangle x="50" y="70" width="50" height="26" as="alternateBounds" />
          </mxGeometry>
        </mxCell>
        <mxCell id="Ammq4lgvdtWHiRioid3K-7" value="Item 1" style="text;strokeColor=none;fillColor=none;align=left;verticalAlign=top;spacingLeft=4;spacingRight=4;overflow=hidden;rotatable=0;points=[[0,0.5],[1,0.5]];portConstraint=eastwest;fontColor=#5AA9E6;" parent="Ammq4lgvdtWHiRioid3K-6" vertex="1">
          <mxGeometry y="26" width="140" height="26" as="geometry" />
        </mxCell>
        <mxCell id="Ammq4lgvdtWHiRioid3K-8" value="Item 2" style="text;strokeColor=none;fillColor=none;align=left;verticalAlign=top;spacingLeft=4;spacingRight=4;overflow=hidden;rotatable=0;points=[[0,0.5],[1,0.5]];portConstraint=eastwest;fontColor=#5AA9E6;" parent="Ammq4lgvdtWHiRioid3K-6" vertex="1">
          <mxGeometry y="52" width="140" height="26" as="geometry" />
        </mxCell>
        <mxCell id="Ammq4lgvdtWHiRioid3K-9" value="Item 3" style="text;strokeColor=none;fillColor=none;align=left;verticalAlign=top;spacingLeft=4;spacingRight=4;overflow=hidden;rotatable=0;points=[[0,0.5],[1,0.5]];portConstraint=eastwest;fontColor=#5AA9E6;" parent="Ammq4lgvdtWHiRioid3K-6" vertex="1">
          <mxGeometry y="78" width="140" height="26" as="geometry" />
        </mxCell>
        <mxCell id="Ammq4lgvdtWHiRioid3K-11" value="" style="edgeStyle=orthogonalEdgeStyle;curved=1;rounded=1;sketch=1;orthogonalLoop=1;jettySize=auto;html=1;strokeColor=#FF6392;fillColor=#FFE45E;fontColor=#5AA9E6;" parent="Ammq4lgvdtWHiRioid3K-3" source="Ammq4lgvdtWHiRioid3K-10" target="Ammq4lgvdtWHiRioid3K-5" edge="1">
          <mxGeometry relative="1" as="geometry" />
        </mxCell>
        <mxCell id="Ammq4lgvdtWHiRioid3K-10" value="" style="verticalLabelPosition=bottom;verticalAlign=top;html=1;shape=process;whiteSpace=wrap;rounded=1;size=0.14;arcSize=0;sketch=1;strokeColor=#FF6392;fillColor=#FFE45E;fontColor=#5AA9E6;" parent="Ammq4lgvdtWHiRioid3K-3" vertex="1">
          <mxGeometry x="280" y="92" width="100" height="60" as="geometry" />
        </mxCell>
        <mxCell id="Ammq4lgvdtWHiRioid3K-12" value="" style="edgeStyle=orthogonalEdgeStyle;curved=1;rounded=1;sketch=1;orthogonalLoop=1;jettySize=auto;html=1;strokeColor=#FF6392;fillColor=#FFE45E;fontColor=#5AA9E6;" parent="Ammq4lgvdtWHiRioid3K-3" source="Ammq4lgvdtWHiRioid3K-7" target="Ammq4lgvdtWHiRioid3K-10" edge="1">
          <mxGeometry relative="1" as="geometry" />
        </mxCell>
        <mxCell id="Ammq4lgvdtWHiRioid3K-4" value="Untitled Layer" parent="0" visible="0" />
      </root>
    </mxGraphModel>
  </diagram>
</mxfile>
